ModelForces
version=1
nRows=5
nColumns=94
inDegrees=yes

This file contains the forces exerted on a model during a simulation.

A force is a generalized force, meaning that it can be either a force (N) or a torque (Nm).

Units are S.I. units (second, meters, Newtons, ...)
Angles are in degrees.

endheader 
time	addbrev_l	addlong_l	addmagDist_l	addmagIsch_l	addmagMid_l	addmagProx_l	bflh_l	bfsh_l	edl_l	ehl_l	fdl_l	fhl_l	gaslat_l	gasmed_l	glmax1_l	glmax2_l	glmax3_l	glmed1_l	glmed2_l	glmed3_l	glmin1_l	glmin2_l	glmin3_l	grac_l	iliacus_l	perbrev_l	perlong_l	piri_l	psoas_l	recfem_l	sart_l	semimem_l	semiten_l	soleus_l	tfl_l	tibant_l	tibpost_l	vasint_l	vaslat_l	vasmed_l	addbrev_r	addlong_r	addmagDist_r	addmagIsch_r	addmagMid_r	addmagProx_r	bflh_r	bfsh_r	edl_r	ehl_r	fdl_r	fhl_r	gaslat_r	gasmed_r	glmax1_r	glmax2_r	glmax3_r	glmed1_r	glmed2_r	glmed3_r	glmin1_r	glmin2_r	glmin3_r	grac_r	iliacus_r	perbrev_r	perlong_r	piri_r	psoas_r	recfem_r	sart_r	semimem_r	semiten_r	soleus_r	tfl_r	tibant_r	tibpost_r	vasint_r	vaslat_r	vasmed_r	lumbar_extension	lumbar_bending	lumbar_rotation	arm_flex_l	arm_add_l	arm_rot_l	arm_flex_r	arm_add_r	arm_rot_r	elbow_flex_l	elbow_flex_r	pro_sup_l	pro_sup_r	
          7.82000000	         16.10794678	         76.98398598	         13.15481739	          6.89197637	         24.68018024	         26.70500184	         49.10290036	         77.99546241	        129.54880039	         34.33194415	          7.76209420	         10.56474809	         88.48589045	        115.33593799	         38.36286913	        150.01991703	        123.01102154	          5.23077114	          6.44772100	          8.72496194	          0.87797210	          4.50521182	          2.93005515	         10.30530222	        201.99838858	         46.05906098	         99.06525167	        110.49162086	        374.03269057	          8.45468603	         52.65315121	         31.94259318	         14.03665537	        241.48594522	          0.16509590	        349.99244584	         36.99431460	         56.91723504	        270.46791647	         94.26458548	         13.14732531	         59.08544592	          5.69754650	          5.73683753	          5.73167842	         16.61443871	         79.60138724	         35.32840918	         46.40297294	          9.71072813	         15.62723795	         10.86928267	         52.60635108	         70.33205383	          9.07344336	         12.46562978	         33.27029387	         31.93540083	         17.86814014	         22.71253998	          9.85841679	         10.81646726	          6.06386372	          6.00177510	         36.96260919	         17.20673001	         59.88403278	          0.01095552	         83.22713015	         59.30596643	         17.75071320	         77.29060009	         13.67754497	         62.39651169	         10.05808052	        164.29713789	          4.76066021	         21.50233086	         35.62681871	         17.72122963	         -8.32901137	          0.26557433	         13.37134591	         -0.62181038	        -32.55559104	        -25.87407433	          2.62794411	         28.88853897	         38.44473478	        -10.88495936	         24.71837201	         -1.22995955	          4.34177977	
          7.83000000	         13.89180376	         67.62097568	         10.33337789	          5.25238370	         20.27845412	         22.58385526	         33.51416491	         66.88963995	        113.45624551	         30.41324289	          6.97554627	          9.06998934	         37.97348783	        111.18990550	         31.33652013	        118.78941392	         93.88240444	          5.14583749	          6.33300784	          8.48685693	          0.89283374	          3.77752880	          2.37199318	          8.74024844	        179.08128235	         38.10009456	         95.72433458	        105.88538012	        324.95275302	          6.68520097	         45.06766893	         15.84122781	         11.42777120	        241.62981329	          0.18633633	        311.02664006	         29.48345476	         44.02746761	        214.07899937	         74.10770474	         39.82958450	         55.35300486	          6.58563190	          5.59971754	         29.88432962	         81.15484471	         64.04553127	         29.34872197	         41.84917541	          7.93402093	          7.39734431	          7.69119136	         52.36603062	         43.55998839	          7.22983267	          9.86201858	         26.75168239	         25.55915737	         14.20954359	         15.99746426	          8.10457080	          8.85991246	          4.30463905	          8.69408434	         31.36440615	         15.81426053	         55.73320407	          0.01106586	         70.42008334	         49.71211543	         14.89619851	         63.22296128	         11.17932407	         45.00146153	          8.77279398	        128.39641785	         45.85901363	         17.34532387	         29.02304091	         14.84609903	        -10.05629045	         -2.28290914	         15.14599118	         36.82434094	         12.42880787	          1.21880699	        -35.07574979	         59.88742695	        -14.46668215	          8.51928998	        -20.62852865	          0.18843811	         -2.27755841	
          7.84000000	         11.78711693	         57.06634042	         25.94201683	         21.22049204	         22.35257271	         19.09276197	         43.94037523	         56.66844590	        100.47229531	         27.21517710	          4.18635632	          7.47760892	         69.76632598	         76.06080164	         25.94995220	        124.00065116	        116.81457100	          4.95827191	          6.19162647	          8.26674377	          0.84225570	          3.10185802	          1.87391916	          7.39427220	        151.54491401	         32.43561988	         90.35810640	         76.48158418	        274.14049563	          4.91530665	         38.02574711	         71.12389274	         12.27081991	        202.55716027	          0.14847554	        280.70402505	         20.59703918	         42.75898272	        170.70318921	         66.09473966	         32.80262854	         45.21165588	          5.87497254	          5.43380107	         24.82205627	         67.96638692	         55.93372924	         24.56737438	         38.88168305	          6.94619531	          9.17485509	         15.23605932	         32.31939558	         57.53904462	          6.72983493	          8.62142589	         25.07662148	         20.95089713	         11.63444178	         58.16776029	          6.76687688	          7.43946953	          3.22242333	          7.17905605	         26.22401731	         14.68801726	         49.41856515	          0.01075976	         58.65385644	         43.58779936	         12.49328619	         52.26221422	          9.20056503	         43.19320630	          7.19642997	        118.35787669	         36.83721183	         15.23294523	         44.49954536	         22.21422797	         12.83928740	         17.13682144	          5.38264827	         64.63231776	        -28.03528272	        -22.89896069	          6.28049492	          7.03841296	         -8.02699010	         10.47688699	          0.04047864	         -1.28995333	         -1.18288989	
          7.85000000	         10.21521964	         49.57116456	         21.63631396	         17.48511439	         18.90427331	         16.34302946	         35.58922000	         47.59478986	         86.41168147	         22.92181553	          5.44663106	         11.12957612	         44.65306323	         90.65487247	         22.20517645	        137.50382800	         96.12141072	          4.54596134	          5.90524065	          8.30088128	          0.73881561	          2.44767707	          1.31268994	          6.27501740	        128.84721826	         26.97258729	         82.98068828	         71.72345193	        230.23335695	          3.61990213	         31.90037766	         57.92049907	         10.29501307	        162.40119761	          0.09556195	        242.06859975	         19.84224778	         34.81866063	        137.63335859	         53.68831189	         26.18111004	         36.41461189	          5.89933126	          5.06243203	         19.84063117	         54.41629488	         35.53624783	         18.81185672	         25.54925358	          3.77460376	          6.63327966	         11.68370339	         45.21319130	          4.40849896	          6.75958516	          9.29712810	         19.17364181	         18.23303580	          9.66756007	         47.07626862	          6.08500787	          6.62361599	          2.60429567	          5.16458158	         22.41616149	         10.40763937	         43.07014328	          0.00356474	         48.57665167	         37.53407177	         10.29222756	         42.08776767	          7.37815880	         37.45528444	          6.86701786	         84.01411296	         26.10448155	         11.89232470	         34.20001229	         17.40774658	         15.67462267	          6.55246453	          0.99736418	         85.62221563	         -8.83397177	        -27.99159490	        -20.65783879	         16.31738200	         33.12343183	         22.37683260	         15.49443096	         -2.64102011	          4.19652038	
          7.86000000	          8.98098857	         42.50902582	         18.32262045	         14.77881216	         16.14465345	         14.16141140	         29.37586290	         39.54343614	         71.58654578	         18.92751159	          3.58627364	          8.14013503	         51.49497107	         73.26300660	         18.35886121	        113.83377734	         80.33686691	          4.19836023	          5.64092971	          7.60377197	          0.65900561	          1.95678914	          0.90888510	          5.52177999	        106.56158319	         21.83512666	         69.47990608	         46.15476104	        198.08192779	          2.35713826	         26.41910648	         47.93196325	          8.72831600	        124.19978878	          0.02221610	        201.75608493	         14.31164267	         28.70688306	        113.47020166	         44.29274084	         35.10311078	         30.95642264	          5.28587837	          4.78266893	         23.23816908	         64.83601221	         53.18872378	         37.91089789	         45.44067851	         11.28847733	          5.19418315	          8.87159066	          3.56572048	        134.00466982	          5.64455737	          7.70216247	         15.43693778	         15.91717542	          8.33025062	         39.95377566	          5.32477912	          5.84002114	          2.28648540	         20.52597878	         18.34120440	         21.09695294	         37.48555837	          0.02485617	         48.92617353	         30.93391835	         18.35123670	         34.85495499	          8.13971939	         23.53256986	          6.12051473	        130.42419905	         19.85968960	          9.24951502	         26.56072542	         13.63500196	          1.00445100	          1.68859012	          7.75731142	         26.99332308	         30.34048144	         16.12481214	        -52.58537456	         50.31465905	        -18.19597692	         11.98093582	        -27.55112739	          1.92251375	         -2.51882682	
